<?xml version="1.0" encoding="UTF-8"?>
<!DOCTYPE svg PUBLIC "-//W3C//DTD SVG 1.1//EN" "http://www.w3.org/Graphics/SVG/1.1/DTD/svg11.dtd">
<svg xmlns="http://www.w3.org/2000/svg" version="1.1" width="512px" height="512px" style="shape-rendering:geometricPrecision; text-rendering:geometricPrecision; image-rendering:optimizeQuality; fill-rule:evenodd; clip-rule:evenodd" xmlns:xlink="http://www.w3.org/1999/xlink">
<g><path style="opacity:0.992" fill="#000000" d="M 247.5,7.5 C 252.833,7.5 258.167,7.5 263.5,7.5C 263.171,13.2055 263.505,18.8722 264.5,24.5C 279.062,32.3475 283.229,44.0142 277,59.5C 273.922,64.4114 269.756,68.0781 264.5,70.5C 263.505,76.1278 263.171,81.7945 263.5,87.5C 278.752,84.705 289.252,90.3716 295,104.5C 295.5,112.159 295.666,119.826 295.5,127.5C 320.611,138.108 339.111,155.775 351,180.5C 354.882,189.481 357.549,198.814 359,208.5C 359.5,226.83 359.667,245.164 359.5,263.5C 364.833,263.5 370.167,263.5 375.5,263.5C 375.333,244.164 375.5,224.83 376,205.5C 381.371,185.296 394.204,172.63 414.5,167.5C 415.833,161.833 415.833,156.167 414.5,150.5C 399.131,141.887 395.297,129.554 403,113.5C 406.117,109.546 409.95,106.546 414.5,104.5C 415.495,98.8722 415.829,93.2055 415.5,87.5C 420.833,87.5 426.167,87.5 431.5,87.5C 431.171,93.2055 431.505,98.8722 432.5,104.5C 447.062,112.348 451.229,124.014 445,139.5C 441.922,144.411 437.756,148.078 432.5,150.5C 431.167,156.167 431.167,161.833 432.5,167.5C 452.796,172.63 465.629,185.296 471,205.5C 471.5,224.83 471.667,244.164 471.5,263.5C 476.5,263.5 481.5,263.5 486.5,263.5C 492.779,290.115 499.445,316.615 506.5,343C 500.175,343.5 493.842,343.666 487.5,343.5C 487.5,396.833 487.5,450.167 487.5,503.5C 332.833,503.5 178.167,503.5 23.5,503.5C 23.5,450.167 23.5,396.833 23.5,343.5C 17.1579,343.666 10.8246,343.5 4.5,343C 11.5546,316.615 18.2213,290.115 24.5,263.5C 29.5,263.5 34.5,263.5 39.5,263.5C 39.3334,244.164 39.5,224.83 40,205.5C 45.3706,185.296 58.2039,172.63 78.5,167.5C 79.8333,161.833 79.8333,156.167 78.5,150.5C 63.1308,141.887 59.2974,129.554 67,113.5C 70.1169,109.546 73.9503,106.546 78.5,104.5C 79.4954,98.8722 79.8288,93.2055 79.5,87.5C 84.8333,87.5 90.1667,87.5 95.5,87.5C 95.1712,93.2055 95.5046,98.8722 96.5,104.5C 111.062,112.348 115.229,124.014 109,139.5C 105.922,144.411 101.756,148.078 96.5,150.5C 95.1667,156.167 95.1667,161.833 96.5,167.5C 116.796,172.63 129.629,185.296 135,205.5C 135.5,224.83 135.667,244.164 135.5,263.5C 140.833,263.5 146.167,263.5 151.5,263.5C 151.333,245.164 151.5,226.83 152,208.5C 158.771,170.572 179.604,143.572 214.5,127.5C 215.331,119.855 215.831,112.188 216,104.5C 221.748,90.3716 232.248,84.705 247.5,87.5C 247.829,81.7945 247.495,76.1278 246.5,70.5C 231.131,61.887 227.297,49.5537 235,33.5C 238.117,29.5458 241.95,26.5458 246.5,24.5C 247.495,18.8722 247.829,13.2055 247.5,7.5 Z"/></g>
<g><path style="opacity:1" fill="#f1ce6b" d="M 252.5,39.5 C 260.658,38.8229 264.158,42.4895 263,50.5C 260.774,54.8608 257.274,56.3608 252.5,55C 248.139,52.7742 246.639,49.2742 248,44.5C 249.025,42.313 250.525,40.6464 252.5,39.5 Z"/></g>
<g><path style="opacity:1" fill="#dcaf89" d="M 236.5,103.5 C 249.171,103.333 261.838,103.5 274.5,104C 276.667,104.833 278.167,106.333 279,108.5C 279.499,113.155 279.666,117.821 279.5,122.5C 263.627,118.522 247.794,118.522 232,122.5C 231.333,117.833 231.333,113.167 232,108.5C 233.025,106.313 234.525,104.646 236.5,103.5 Z"/></g>
<g><path style="opacity:1" fill="#f1ce6b" d="M 84.5,119.5 C 92.6577,118.823 96.1577,122.49 95,130.5C 92.7742,134.861 89.2742,136.361 84.5,135C 80.1392,132.774 78.6392,129.274 80,124.5C 81.025,122.313 82.525,120.646 84.5,119.5 Z"/></g>
<g><path style="opacity:1" fill="#f1ce6b" d="M 420.5,119.5 C 428.658,118.823 432.158,122.49 431,130.5C 428.774,134.861 425.274,136.361 420.5,135C 416.139,132.774 414.639,129.274 416,124.5C 417.025,122.313 418.525,120.646 420.5,119.5 Z"/></g>
<g><path style="opacity:1" fill="#cc9c74" d="M 230.5,138.5 C 231.978,138.238 233.311,138.571 234.5,139.5C 222.651,157.717 216.651,177.717 216.5,199.5C 201.5,199.5 186.5,199.5 171.5,199.5C 180.652,169.014 200.319,148.681 230.5,138.5 Z"/></g>
<g><path style="opacity:1" fill="#d09e6a" d="M 254.5,138.5 C 267.319,151.808 275.152,167.808 278,186.5C 278.499,190.821 278.666,195.154 278.5,199.5C 263.167,199.5 247.833,199.5 232.5,199.5C 232.824,176.541 240.158,156.208 254.5,138.5 Z"/></g>
<g><path style="opacity:1" fill="#cc9c74" d="M 276.5,138.5 C 309.008,147.009 330.008,167.343 339.5,199.5C 324.5,199.5 309.5,199.5 294.5,199.5C 294.145,177.44 288.145,157.107 276.5,138.5 Z"/></g>
<g><path style="opacity:1" fill="#a8b0ba" d="M 80.5,183.5 C 103.582,182.175 116.582,192.842 119.5,215.5C 98.1667,215.5 76.8333,215.5 55.5,215.5C 56.6626,199.152 64.996,188.486 80.5,183.5 Z"/></g>
<g><path style="opacity:1" fill="#a8b0ba" d="M 416.5,183.5 C 439.582,182.175 452.582,192.842 455.5,215.5C 434.167,215.5 412.833,215.5 391.5,215.5C 392.663,199.152 400.996,188.486 416.5,183.5 Z"/></g>
<g><path style="opacity:1" fill="#e5e8ec" d="M 167.5,215.5 C 226.167,215.5 284.833,215.5 343.5,215.5C 343.5,231.5 343.5,247.5 343.5,263.5C 327.83,263.667 312.163,263.5 296.5,263C 288.197,253.696 279.531,244.696 270.5,236C 260.5,230 250.5,230 240.5,236C 231.469,244.696 222.803,253.696 214.5,263C 198.837,263.5 183.17,263.667 167.5,263.5C 167.5,247.5 167.5,231.5 167.5,215.5 Z"/></g>
<g><path style="opacity:1" fill="#cbd1d8" d="M 55.5,231.5 C 76.8333,231.5 98.1667,231.5 119.5,231.5C 119.5,242.167 119.5,252.833 119.5,263.5C 98.1667,263.5 76.8333,263.5 55.5,263.5C 55.5,252.833 55.5,242.167 55.5,231.5 Z"/></g>
<g><path style="opacity:1" fill="#cbd1d8" d="M 391.5,231.5 C 412.833,231.5 434.167,231.5 455.5,231.5C 455.5,242.167 455.5,252.833 455.5,263.5C 434.167,263.5 412.833,263.5 391.5,263.5C 391.5,252.833 391.5,242.167 391.5,231.5 Z"/></g>
<g><path style="opacity:1" fill="#f7d36e" d="M 252.5,247.5 C 256.131,247.16 259.464,247.994 262.5,250C 291.534,280.699 320.201,311.699 348.5,343C 339.833,343.667 331.167,343.667 322.5,343C 300.323,317.992 277.99,293.158 255.5,268.5C 233.01,293.158 210.677,317.992 188.5,343C 179.833,343.667 171.167,343.667 162.5,343C 190.035,313.8 217.201,284.3 244,254.5C 246.441,251.546 249.275,249.213 252.5,247.5 Z"/></g>
<g><path style="opacity:1" fill="#fbd66f" d="M 37.5,279.5 C 91.501,279.333 145.501,279.5 199.5,280C 184.467,295.365 169.8,311.032 155.5,327C 112.163,327.833 68.8295,327.667 25.5,326.5C 29.6591,310.863 33.6591,295.197 37.5,279.5 Z"/></g>
<g><path style="opacity:1" fill="#fbd66f" d="M 311.5,280.5 C 365.335,279.169 419.335,279.169 473.5,280.5C 477.5,295.833 481.5,311.167 485.5,326.5C 442.171,327.667 398.837,327.833 355.5,327C 341.332,311 326.666,295.5 311.5,280.5 Z"/></g>
<g><path style="opacity:1" fill="#fde8a5" d="M 254.5,292.5 C 257.731,294.22 260.564,296.553 263,299.5C 275.462,314.297 288.295,328.797 301.5,343C 270.833,343.667 240.167,343.667 209.5,343C 224.39,326.041 239.39,309.207 254.5,292.5 Z"/></g>
<g><path style="opacity:1" fill="#e5e8ec" d="M 39.5,343.5 C 72.835,343.333 106.168,343.5 139.5,344C 135.2,349.301 130.534,354.301 125.5,359C 123.527,359.495 121.527,359.662 119.5,359.5C 119.5,370.167 119.5,380.833 119.5,391.5C 124.833,391.5 130.167,391.5 135.5,391.5C 135.5,380.833 135.5,370.167 135.5,359.5C 140.833,359.5 146.167,359.5 151.5,359.5C 151.5,375.5 151.5,391.5 151.5,407.5C 114.167,407.5 76.8333,407.5 39.5,407.5C 39.5,386.167 39.5,364.833 39.5,343.5 Z"/></g>
<g><path style="opacity:1" fill="#e5e8ec" d="M 371.5,344.5 C 404.662,343.502 437.996,343.168 471.5,343.5C 471.5,364.833 471.5,386.167 471.5,407.5C 434.167,407.5 396.833,407.5 359.5,407.5C 359.5,391.5 359.5,375.5 359.5,359.5C 364.833,359.5 370.167,359.5 375.5,359.5C 375.5,370.167 375.5,380.833 375.5,391.5C 380.833,391.5 386.167,391.5 391.5,391.5C 391.5,380.833 391.5,370.167 391.5,359.5C 389.473,359.662 387.473,359.495 385.5,359C 380.603,354.271 375.936,349.438 371.5,344.5 Z"/></g>
<g><path style="opacity:1" fill="#000000" d="M 55.5,359.5 C 60.8333,359.5 66.1667,359.5 71.5,359.5C 71.5,370.167 71.5,380.833 71.5,391.5C 66.1667,391.5 60.8333,391.5 55.5,391.5C 55.5,380.833 55.5,370.167 55.5,359.5 Z"/></g>
<g><path style="opacity:1" fill="#000000" d="M 87.5,359.5 C 92.8333,359.5 98.1667,359.5 103.5,359.5C 103.5,370.167 103.5,380.833 103.5,391.5C 98.1667,391.5 92.8333,391.5 87.5,391.5C 87.5,380.833 87.5,370.167 87.5,359.5 Z"/></g>
<g><path style="opacity:1" fill="#cbd1d8" d="M 167.5,359.5 C 172.833,359.5 178.167,359.5 183.5,359.5C 183.5,402.167 183.5,444.833 183.5,487.5C 178.167,487.5 172.833,487.5 167.5,487.5C 167.5,444.833 167.5,402.167 167.5,359.5 Z"/></g>
<g><path style="opacity:1" fill="#e5e9ec" d="M 199.5,359.5 C 210.167,359.5 220.833,359.5 231.5,359.5C 231.5,370.167 231.5,380.833 231.5,391.5C 220.833,391.5 210.167,391.5 199.5,391.5C 199.5,380.833 199.5,370.167 199.5,359.5 Z"/></g>
<g><path style="opacity:1" fill="#cbd1d8" d="M 247.5,359.5 C 252.833,359.5 258.167,359.5 263.5,359.5C 263.5,370.167 263.5,380.833 263.5,391.5C 258.167,391.5 252.833,391.5 247.5,391.5C 247.5,380.833 247.5,370.167 247.5,359.5 Z"/></g>
<g><path style="opacity:1" fill="#e5e9ec" d="M 279.5,359.5 C 290.167,359.5 300.833,359.5 311.5,359.5C 311.5,370.167 311.5,380.833 311.5,391.5C 300.833,391.5 290.167,391.5 279.5,391.5C 279.5,380.833 279.5,370.167 279.5,359.5 Z"/></g>
<g><path style="opacity:1" fill="#cbd1d8" d="M 327.5,359.5 C 332.833,359.5 338.167,359.5 343.5,359.5C 343.5,402.167 343.5,444.833 343.5,487.5C 338.167,487.5 332.833,487.5 327.5,487.5C 327.5,444.833 327.5,402.167 327.5,359.5 Z"/></g>
<g><path style="opacity:1" fill="#000000" d="M 407.5,359.5 C 412.833,359.5 418.167,359.5 423.5,359.5C 423.5,370.167 423.5,380.833 423.5,391.5C 418.167,391.5 412.833,391.5 407.5,391.5C 407.5,380.833 407.5,370.167 407.5,359.5 Z"/></g>
<g><path style="opacity:1" fill="#000000" d="M 439.5,359.5 C 444.833,359.5 450.167,359.5 455.5,359.5C 455.5,370.167 455.5,380.833 455.5,391.5C 450.167,391.5 444.833,391.5 439.5,391.5C 439.5,380.833 439.5,370.167 439.5,359.5 Z"/></g>
<g><path style="opacity:1" fill="#e5e9ec" d="M 199.5,407.5 C 236.833,407.5 274.167,407.5 311.5,407.5C 311.5,434.167 311.5,460.833 311.5,487.5C 306.167,487.5 300.833,487.5 295.5,487.5C 295.5,466.167 295.5,444.833 295.5,423.5C 268.833,423.5 242.167,423.5 215.5,423.5C 215.5,444.833 215.5,466.167 215.5,487.5C 210.167,487.5 204.833,487.5 199.5,487.5C 199.5,460.833 199.5,434.167 199.5,407.5 Z"/></g>
<g><path style="opacity:1" fill="#e5e9ec" d="M 39.5,423.5 C 76.8333,423.5 114.167,423.5 151.5,423.5C 151.5,444.833 151.5,466.167 151.5,487.5C 114.167,487.5 76.8333,487.5 39.5,487.5C 39.5,466.167 39.5,444.833 39.5,423.5 Z"/></g>
<g><path style="opacity:1" fill="#e5e9ec" d="M 359.5,423.5 C 396.833,423.5 434.167,423.5 471.5,423.5C 471.5,444.833 471.5,466.167 471.5,487.5C 434.167,487.5 396.833,487.5 359.5,487.5C 359.5,466.167 359.5,444.833 359.5,423.5 Z"/></g>
<g><path style="opacity:1" fill="#000000" d="M 55.5,439.5 C 60.8333,439.5 66.1667,439.5 71.5,439.5C 71.5,450.167 71.5,460.833 71.5,471.5C 66.1667,471.5 60.8333,471.5 55.5,471.5C 55.5,460.833 55.5,450.167 55.5,439.5 Z"/></g>
<g><path style="opacity:1" fill="#000000" d="M 87.5,439.5 C 92.8333,439.5 98.1667,439.5 103.5,439.5C 103.5,450.167 103.5,460.833 103.5,471.5C 98.1667,471.5 92.8333,471.5 87.5,471.5C 87.5,460.833 87.5,450.167 87.5,439.5 Z"/></g>
<g><path style="opacity:1" fill="#000000" d="M 119.5,439.5 C 124.833,439.5 130.167,439.5 135.5,439.5C 135.5,450.167 135.5,460.833 135.5,471.5C 130.167,471.5 124.833,471.5 119.5,471.5C 119.5,460.833 119.5,450.167 119.5,439.5 Z"/></g>
<g><path style="opacity:1" fill="#a9b2bc" d="M 231.5,439.5 C 247.5,439.5 263.5,439.5 279.5,439.5C 279.5,455.5 279.5,471.5 279.5,487.5C 263.5,487.5 247.5,487.5 231.5,487.5C 231.5,471.5 231.5,455.5 231.5,439.5 Z"/></g>
<g><path style="opacity:1" fill="#000000" d="M 375.5,439.5 C 380.833,439.5 386.167,439.5 391.5,439.5C 391.5,450.167 391.5,460.833 391.5,471.5C 386.167,471.5 380.833,471.5 375.5,471.5C 375.5,460.833 375.5,450.167 375.5,439.5 Z"/></g>
<g><path style="opacity:1" fill="#000000" d="M 407.5,439.5 C 412.833,439.5 418.167,439.5 423.5,439.5C 423.5,450.167 423.5,460.833 423.5,471.5C 418.167,471.5 412.833,471.5 407.5,471.5C 407.5,460.833 407.5,450.167 407.5,439.5 Z"/></g>
<g><path style="opacity:1" fill="#000000" d="M 439.5,439.5 C 444.833,439.5 450.167,439.5 455.5,439.5C 455.5,450.167 455.5,460.833 455.5,471.5C 450.167,471.5 444.833,471.5 439.5,471.5C 439.5,460.833 439.5,450.167 439.5,439.5 Z"/></g>
</svg>
